<?xml version="1.0" standalone="no"?>
<!DOCTYPE svg PUBLIC "-//W3C//DTD SVG 20010904//EN"
 "http://www.w3.org/TR/2001/REC-SVG-20010904/DTD/svg10.dtd">
<svg version="1.0" xmlns="http://www.w3.org/2000/svg"
 width="512.000000pt" height="512.000000pt" viewBox="0 0 512.000000 512.000000"
 preserveAspectRatio="xMidYMid meet">

<g transform="translate(0.000000,512.000000) scale(0.100000,-0.100000)"
fill="#000000" stroke="none">
<path d="M1775 3832 c-429 -707 -781 -1291 -783 -1297 -3 -11 1517 -925 1535
-925 16 1 1597 915 1596 923 -1 9 -1551 2567 -1562 2579 -3 3 -357 -573 -786
-1280z"/>
<path d="M916 2280 c6 -8 377 -523 824 -1145 447 -621 814 -1131 815 -1133 1
-1 372 511 824 1139 452 628 821 1143 819 1145 -2 1 -379 -213 -838 -477 -458
-263 -835 -479 -836 -479 -1 0 -1456 866 -1584 943 -21 13 -30 15 -24 7z"/>
</g>
</svg>
